# xmcd CD database file
#
# Track frame offsets:
#	150
#	14705
#	29534
#	42905
#	55162
#	71705
#	86524
#	100862
#	114755
#	128355
#	142458
#	156501
#	170164
#	184377
#	198614
#	212689
#	224818
#	237462
#	250309
#	264496
#	278721
#	291311
#	305071
#	318541
#	331760
#	345500
#
# Disc length: 4783 seconds
#
# Revision: 0
# Processed by: cddbd v1.5.2PL0 Copyright (c) Steve Scherf et al.
# Submitted via: CDex 1.70beta2
#
DISCID=a412ad1a
DTITLE=Various Artist - The Story Of Big Bands 1914 - 1955 (2)
DYEAR=2006
DGENRE=Jazz
TTITLE0=Duke Ellington And His Orchestra, The Mooche
TTITLE1=Duke Ellington And His Orchestra, Hot And Bothered
TTITLE2=Lud Gluskin And His versatile Juniors, Clarinet Marmelade
TTITLE3=McKinney's Cotton Pickers, It's Tight Like That
TTITLE4=King Oliver And His Orchestra, West End Blues
TTITLE5=Earl Hines And His Orchestra, Everybody Loves My Baby
TTITLE6=Maestro Sam Wooding Y Sus Chocolate Kiddies, Blake's Blues
TTITLE7=The Missourians, Ozark Mountain Blues
TTITLE8=Henry 'Red' Allen And His Orchestra, Sugar Hill Function
TTITLE9=Duke Ellington And His Cotton Club Orchestra, Mood Indigo
TTITLE10=Luis Russell And His Orchestra, Saratoga Drag
TTITLE11=Duke Ellington And His Orchestra The Jungle Band, Rockin' In Rhythm
TTITLE12=Glenn Gray And His casa Loma Orchestra, White Jazz
TTITLE13=Fletcher henderson And The Connee's Inn Orchestra, Sugar Foot Stomp
TTITLE14=Mills Blue Rhythm Band, Savage Rhythm
TTITLE15=Don Redman And His Orchestra, Shakin' The African
TTITLE16=Radiolians, Who Taught You That
TTITLE17=Don Redman And His Orchestra, Hot And Anxious
TTITLE18=Cab Calloway And His Orchestra, The Man From Harlem
TTITLE19=Fletcher Henderson And His Orchestra, New King Porter Stomp
TTITLE20=Bennie Moten's Kansas City Orchestra, Lafayette
TTITLE21=Louis Armstrong And His Orchestra, I Gotta Right To Sing The Blues
TTITLE22=Duke Ellington And His Orchestra, daybreak Express
TTITLE23=Glen Gray And His Casa Loma Orchestra, Casa Loma Stomp
TTITLE24=Benny Carter And His Orchestra, Symphony In Riffs
TTITLE25=Mills Blue Rhythm Band, The Growl
EXTD=YEAR: 2006
EXTT0=
EXTT1=
EXTT2=
EXTT3=
EXTT4=
EXTT5=
EXTT6=
EXTT7=
EXTT8=
EXTT9=
EXTT10=
EXTT11=
EXTT12=
EXTT13=
EXTT14=
EXTT15=
EXTT16=
EXTT17=
EXTT18=
EXTT19=
EXTT20=
EXTT21=
EXTT22=
EXTT23=
EXTT24=
EXTT25=
PLAYORDER=
